<mxfile host="app.diagrams.net" agent="Mozilla/5.0 (X11; Linux x86_64; rv:143.0) Gecko/20100101 Firefox/143.0" version="28.2.3">
  <diagram name="Page-1" id="GnWXNovoCllQR0PaRCnU">
    <mxGraphModel dx="1005" dy="646" grid="1" gridSize="10" guides="1" tooltips="1" connect="1" arrows="1" fold="1" page="1" pageScale="1" pageWidth="850" pageHeight="1100" background="#FFFFFF" math="0" shadow="0">
      <root>
        <mxCell id="0" />
        <mxCell id="1" parent="0" />
        <mxCell id="DQcg5EJKzN0mDOpgjfEo-9" value="&lt;div style=&quot;text-align: justify;&quot;&gt;&lt;br&gt;&lt;/div&gt;" style="rounded=1;whiteSpace=wrap;html=1;strokeWidth=2;fillWeight=4;hachureGap=8;hachureAngle=45;fillColor=#dae8fc;sketch=1;strokeColor=#6c8ebf;fillStyle=solid;rotation=0;" vertex="1" parent="1">
          <mxGeometry x="872" y="358.5" width="141" height="455" as="geometry" />
        </mxCell>
        <mxCell id="MF8WEzn8YoeKOsFNkelG-28" value="" style="rounded=1;whiteSpace=wrap;html=1;strokeWidth=2;fillWeight=4;hachureGap=8;hachureAngle=45;sketch=1;fillStyle=solid;" parent="1" vertex="1">
          <mxGeometry x="335" y="698" width="195" height="150" as="geometry" />
        </mxCell>
        <mxCell id="MF8WEzn8YoeKOsFNkelG-27" value="" style="rounded=1;whiteSpace=wrap;html=1;strokeWidth=2;fillWeight=4;hachureGap=8;hachureAngle=45;sketch=1;fillStyle=solid;" parent="1" vertex="1">
          <mxGeometry x="335" y="480" width="195" height="200" as="geometry" />
        </mxCell>
        <mxCell id="MF8WEzn8YoeKOsFNkelG-24" value="&lt;div style=&quot;text-align: justify;&quot;&gt;&lt;br&gt;&lt;/div&gt;" style="rounded=1;whiteSpace=wrap;html=1;strokeWidth=2;fillWeight=4;hachureGap=8;hachureAngle=45;fillColor=#dae8fc;sketch=1;strokeColor=#6c8ebf;fillStyle=solid;rotation=0;" parent="1" vertex="1">
          <mxGeometry x="180" y="360" width="141" height="455" as="geometry" />
        </mxCell>
        <mxCell id="MF8WEzn8YoeKOsFNkelG-23" value="" style="rounded=1;whiteSpace=wrap;html=1;strokeWidth=2;fillWeight=4;hachureGap=8;hachureAngle=45;sketch=1;fillStyle=solid;" parent="1" vertex="1">
          <mxGeometry x="690" y="515" width="170" height="132" as="geometry" />
        </mxCell>
        <mxCell id="MF8WEzn8YoeKOsFNkelG-1" value="Vmware Horizon" style="rounded=1;whiteSpace=wrap;html=1;strokeWidth=2;fillWeight=4;hachureGap=8;hachureAngle=45;fillColor=none;sketch=1;fontFamily=Courier New;" parent="1" vertex="1">
          <mxGeometry x="385" y="736" width="120" height="40" as="geometry" />
        </mxCell>
        <mxCell id="MF8WEzn8YoeKOsFNkelG-13" value="&lt;span style=&quot;text-wrap: nowrap;&quot;&gt;libsoxy.dylib&lt;/span&gt;" style="ellipse;whiteSpace=wrap;html=1;strokeWidth=2;fillWeight=2;hachureGap=8;fillColor=#dae8fc;fillStyle=solid;sketch=1;strokeColor=#6c8ebf;fontFamily=Courier New;" parent="1" vertex="1">
          <mxGeometry x="240" y="749" width="120" height="60" as="geometry" />
        </mxCell>
        <mxCell id="MF8WEzn8YoeKOsFNkelG-16" value="&lt;span style=&quot;text-wrap: nowrap;&quot;&gt;soxy.exe&lt;/span&gt;" style="ellipse;whiteSpace=wrap;html=1;strokeWidth=2;fillWeight=2;hachureGap=8;fillColor=#dae8fc;fillStyle=solid;sketch=1;strokeColor=#6c8ebf;fontFamily=Courier New;" parent="1" vertex="1">
          <mxGeometry x="830" y="517" width="120" height="60" as="geometry" />
        </mxCell>
        <mxCell id="MF8WEzn8YoeKOsFNkelG-17" value="&lt;span style=&quot;text-wrap: nowrap;&quot;&gt;soxy&lt;/span&gt;" style="ellipse;whiteSpace=wrap;html=1;strokeWidth=2;fillWeight=2;hachureGap=8;fillColor=#dae8fc;fillStyle=solid;sketch=1;strokeColor=#6c8ebf;fontFamily=Courier New;" parent="1" vertex="1">
          <mxGeometry x="830" y="658" width="120" height="60" as="geometry" />
        </mxCell>
        <mxCell id="MF8WEzn8YoeKOsFNkelG-18" value="Vmware Horizon" style="rounded=1;whiteSpace=wrap;html=1;strokeWidth=2;fillWeight=4;hachureGap=8;hachureAngle=45;fillColor=none;sketch=1;fontFamily=Courier New;" parent="1" vertex="1">
          <mxGeometry x="385" y="520" width="120" height="40" as="geometry" />
        </mxCell>
        <mxCell id="MF8WEzn8YoeKOsFNkelG-20" value="FreeRDP/Remmina" style="rounded=1;whiteSpace=wrap;html=1;strokeWidth=2;fillWeight=4;hachureGap=8;hachureAngle=45;fillColor=none;sketch=1;fontFamily=Courier New;" parent="1" vertex="1">
          <mxGeometry x="385" y="570" width="120" height="40" as="geometry" />
        </mxCell>
        <mxCell id="MF8WEzn8YoeKOsFNkelG-21" value="Citrix Workspace" style="rounded=1;whiteSpace=wrap;html=1;strokeWidth=2;fillWeight=4;hachureGap=8;hachureAngle=45;fillColor=none;sketch=1;fontFamily=Courier New;" parent="1" vertex="1">
          <mxGeometry x="385" y="622" width="120" height="40" as="geometry" />
        </mxCell>
        <mxCell id="MF8WEzn8YoeKOsFNkelG-31" value="MacOS RDP Client" style="text;html=1;align=center;verticalAlign=middle;resizable=0;points=[];autosize=1;strokeColor=none;fillColor=none;" parent="1" vertex="1">
          <mxGeometry x="368" y="700" width="130" height="30" as="geometry" />
        </mxCell>
        <mxCell id="MF8WEzn8YoeKOsFNkelG-32" value="Linux RDP Clients" style="text;html=1;align=center;verticalAlign=middle;resizable=0;points=[];autosize=1;strokeColor=none;fillColor=none;" parent="1" vertex="1">
          <mxGeometry x="372.5" y="482" width="120" height="30" as="geometry" />
        </mxCell>
        <mxCell id="MF8WEzn8YoeKOsFNkelG-37" value="" style="rounded=1;whiteSpace=wrap;html=1;strokeWidth=2;fillWeight=4;hachureGap=8;hachureAngle=45;sketch=1;fillStyle=solid;" parent="1" vertex="1">
          <mxGeometry x="336" y="320" width="194" height="140" as="geometry" />
        </mxCell>
        <mxCell id="MF8WEzn8YoeKOsFNkelG-38" value="Vmware Horizon" style="rounded=1;whiteSpace=wrap;html=1;strokeWidth=2;fillWeight=4;hachureGap=8;hachureAngle=45;fillColor=none;sketch=1;fontFamily=Courier New;" parent="1" vertex="1">
          <mxGeometry x="386" y="357" width="120" height="40" as="geometry" />
        </mxCell>
        <mxCell id="MF8WEzn8YoeKOsFNkelG-39" value="Windows RDP Client" style="text;html=1;align=center;verticalAlign=middle;resizable=0;points=[];autosize=1;strokeColor=none;fillColor=none;" parent="1" vertex="1">
          <mxGeometry x="367.5" y="322" width="130" height="30" as="geometry" />
        </mxCell>
        <mxCell id="MF8WEzn8YoeKOsFNkelG-15" value="&lt;span style=&quot;text-wrap: nowrap;&quot;&gt;soxy.dll&lt;/span&gt;" style="ellipse;whiteSpace=wrap;html=1;strokeWidth=2;fillWeight=2;hachureGap=8;fillColor=#dae8fc;fillStyle=solid;sketch=1;strokeColor=#6c8ebf;fontFamily=Courier New;" parent="1" vertex="1">
          <mxGeometry x="240" y="372" width="120" height="60" as="geometry" />
        </mxCell>
        <mxCell id="MF8WEzn8YoeKOsFNkelG-40" value="soxy&amp;nbsp;&lt;div&gt;frontend&lt;/div&gt;" style="text;html=1;align=center;verticalAlign=middle;resizable=0;points=[];autosize=1;strokeColor=none;fillColor=none;" parent="1" vertex="1">
          <mxGeometry x="180" y="574" width="70" height="40" as="geometry" />
        </mxCell>
        <mxCell id="MF8WEzn8YoeKOsFNkelG-43" value="" style="endArrow=none;html=1;rounded=0;exitX=0;exitY=0.5;exitDx=0;exitDy=0;entryX=1;entryY=0.5;entryDx=0;entryDy=0;" parent="1" source="MF8WEzn8YoeKOsFNkelG-18" target="MF8WEzn8YoeKOsFNkelG-14" edge="1">
          <mxGeometry width="50" height="50" relative="1" as="geometry">
            <mxPoint x="525" y="494.88" as="sourcePoint" />
            <mxPoint x="365" y="590" as="targetPoint" />
          </mxGeometry>
        </mxCell>
        <mxCell id="MF8WEzn8YoeKOsFNkelG-44" value="" style="endArrow=none;html=1;rounded=0;entryX=1;entryY=0.5;entryDx=0;entryDy=0;" parent="1" target="MF8WEzn8YoeKOsFNkelG-14" edge="1">
          <mxGeometry width="50" height="50" relative="1" as="geometry">
            <mxPoint x="385" y="590" as="sourcePoint" />
            <mxPoint x="365" y="590" as="targetPoint" />
          </mxGeometry>
        </mxCell>
        <mxCell id="MF8WEzn8YoeKOsFNkelG-45" value="" style="endArrow=none;html=1;rounded=0;exitX=0;exitY=0.5;exitDx=0;exitDy=0;entryX=1;entryY=0.5;entryDx=0;entryDy=0;" parent="1" source="MF8WEzn8YoeKOsFNkelG-21" target="MF8WEzn8YoeKOsFNkelG-14" edge="1">
          <mxGeometry width="50" height="50" relative="1" as="geometry">
            <mxPoint x="515" y="600" as="sourcePoint" />
            <mxPoint x="365" y="590" as="targetPoint" />
          </mxGeometry>
        </mxCell>
        <mxCell id="MF8WEzn8YoeKOsFNkelG-14" value="&lt;span style=&quot;text-wrap: nowrap;&quot;&gt;libsoxy.so&lt;/span&gt;" style="ellipse;whiteSpace=wrap;html=1;strokeWidth=2;fillWeight=2;hachureGap=8;fillColor=#dae8fc;fillStyle=solid;sketch=1;strokeColor=#6c8ebf;fontFamily=Courier New;" parent="1" vertex="1">
          <mxGeometry x="240" y="560" width="120" height="60" as="geometry" />
        </mxCell>
        <mxCell id="MF8WEzn8YoeKOsFNkelG-48" value="soxy&amp;nbsp;&lt;div&gt;backend&lt;/div&gt;" style="text;html=1;align=center;verticalAlign=middle;resizable=0;points=[];autosize=1;strokeColor=none;fillColor=none;" parent="1" vertex="1">
          <mxGeometry x="943" y="570" width="70" height="40" as="geometry" />
        </mxCell>
        <mxCell id="MF8WEzn8YoeKOsFNkelG-49" value="&lt;div align=&quot;center&quot;&gt;RDP server&lt;/div&gt;&lt;div align=&quot;center&quot;&gt;(Windows or Linux)&lt;/div&gt;" style="text;html=1;align=center;verticalAlign=middle;resizable=0;points=[];autosize=1;strokeColor=none;fillColor=none;" parent="1" vertex="1">
          <mxGeometry x="710" y="561" width="130" height="40" as="geometry" />
        </mxCell>
        <mxCell id="MF8WEzn8YoeKOsFNkelG-50" value="&lt;div style=&quot;text-align: justify;&quot;&gt;FTP server&lt;br&gt;&lt;/div&gt;" style="rounded=1;whiteSpace=wrap;html=1;strokeWidth=2;fillWeight=4;hachureGap=8;hachureAngle=45;fillColor=#dae8fc;sketch=1;strokeColor=#6c8ebf;fillStyle=solid;rotation=0;" parent="1" vertex="1">
          <mxGeometry x="60" y="455" width="90" height="80" as="geometry" />
        </mxCell>
        <mxCell id="MF8WEzn8YoeKOsFNkelG-51" value="&lt;div style=&quot;text-align: justify;&quot;&gt;read/write&lt;/div&gt;&lt;div style=&quot;text-align: justify;&quot;&gt;clipboard&lt;/div&gt;" style="rounded=1;whiteSpace=wrap;html=1;strokeWidth=2;fillWeight=4;hachureGap=8;hachureAngle=45;fillColor=#dae8fc;sketch=1;strokeColor=#6c8ebf;fillStyle=solid;rotation=0;" parent="1" vertex="1">
          <mxGeometry x="60" y="548" width="90" height="80" as="geometry" />
        </mxCell>
        <mxCell id="MF8WEzn8YoeKOsFNkelG-53" value="&lt;div style=&quot;text-align: justify;&quot;&gt;SOCK5 proxy&lt;br&gt;&lt;/div&gt;" style="rounded=1;whiteSpace=wrap;html=1;strokeWidth=2;fillWeight=4;hachureGap=8;hachureAngle=45;fillColor=#dae8fc;sketch=1;strokeColor=#6c8ebf;fillStyle=solid;rotation=0;" parent="1" vertex="1">
          <mxGeometry x="60" y="640" width="90" height="80" as="geometry" />
        </mxCell>
        <mxCell id="MF8WEzn8YoeKOsFNkelG-55" value="" style="endArrow=none;html=1;rounded=0;entryX=1;entryY=0.5;entryDx=0;entryDy=0;exitX=0;exitY=0.5;exitDx=0;exitDy=0;" parent="1" source="MF8WEzn8YoeKOsFNkelG-38" target="MF8WEzn8YoeKOsFNkelG-15" edge="1">
          <mxGeometry width="50" height="50" relative="1" as="geometry">
            <mxPoint x="395" y="600" as="sourcePoint" />
            <mxPoint x="365" y="419" as="targetPoint" />
          </mxGeometry>
        </mxCell>
        <mxCell id="MF8WEzn8YoeKOsFNkelG-56" value="" style="endArrow=none;html=1;rounded=0;entryX=1;entryY=0.5;entryDx=0;entryDy=0;exitX=0;exitY=0.5;exitDx=0;exitDy=0;" parent="1" source="MF8WEzn8YoeKOsFNkelG-1" target="MF8WEzn8YoeKOsFNkelG-13" edge="1">
          <mxGeometry width="50" height="50" relative="1" as="geometry">
            <mxPoint x="405" y="610" as="sourcePoint" />
            <mxPoint x="365" y="779" as="targetPoint" />
          </mxGeometry>
        </mxCell>
        <mxCell id="MF8WEzn8YoeKOsFNkelG-57" value="" style="endArrow=none;html=1;rounded=0;entryX=1;entryY=0.5;entryDx=0;entryDy=0;exitX=0;exitY=0.5;exitDx=0;exitDy=0;" parent="1" source="MF8WEzn8YoeKOsFNkelG-24" target="MF8WEzn8YoeKOsFNkelG-51" edge="1">
          <mxGeometry width="50" height="50" relative="1" as="geometry">
            <mxPoint x="180" y="589" as="sourcePoint" />
            <mxPoint x="370" y="600" as="targetPoint" />
          </mxGeometry>
        </mxCell>
        <mxCell id="MF8WEzn8YoeKOsFNkelG-67" value="" style="endArrow=none;html=1;rounded=0;entryX=1;entryY=0.5;entryDx=0;entryDy=0;exitX=0;exitY=0.5;exitDx=0;exitDy=0;" parent="1" source="MF8WEzn8YoeKOsFNkelG-24" target="MF8WEzn8YoeKOsFNkelG-50" edge="1">
          <mxGeometry width="50" height="50" relative="1" as="geometry">
            <mxPoint x="180" y="590" as="sourcePoint" />
            <mxPoint x="160" y="599" as="targetPoint" />
          </mxGeometry>
        </mxCell>
        <mxCell id="MF8WEzn8YoeKOsFNkelG-68" value="" style="endArrow=none;html=1;rounded=0;entryX=1.001;entryY=0.552;entryDx=0;entryDy=0;entryPerimeter=0;exitX=0;exitY=0.5;exitDx=0;exitDy=0;" parent="1" source="MF8WEzn8YoeKOsFNkelG-24" target="MF8WEzn8YoeKOsFNkelG-53" edge="1">
          <mxGeometry width="50" height="50" relative="1" as="geometry">
            <mxPoint x="160" y="600" as="sourcePoint" />
            <mxPoint x="160" y="505" as="targetPoint" />
          </mxGeometry>
        </mxCell>
        <mxCell id="MF8WEzn8YoeKOsFNkelG-71" value="" style="endArrow=none;html=1;rounded=0;exitX=0;exitY=0.5;exitDx=0;exitDy=0;entryX=1;entryY=0.5;entryDx=0;entryDy=0;" parent="1" source="MF8WEzn8YoeKOsFNkelG-62" target="MF8WEzn8YoeKOsFNkelG-27" edge="1">
          <mxGeometry width="50" height="50" relative="1" as="geometry">
            <mxPoint x="189" y="598" as="sourcePoint" />
            <mxPoint x="600" y="670" as="targetPoint" />
          </mxGeometry>
        </mxCell>
        <mxCell id="DQcg5EJKzN0mDOpgjfEo-1" value="Citrix Workspace" style="rounded=1;whiteSpace=wrap;html=1;strokeWidth=2;fillWeight=4;hachureGap=8;hachureAngle=45;fillColor=none;sketch=1;fontFamily=Courier New;" vertex="1" parent="1">
          <mxGeometry x="385" y="788" width="120" height="40" as="geometry" />
        </mxCell>
        <mxCell id="DQcg5EJKzN0mDOpgjfEo-4" value="&lt;span style=&quot;text-wrap: nowrap;&quot;&gt;soxy.dll&lt;/span&gt;" style="ellipse;whiteSpace=wrap;html=1;strokeWidth=2;fillWeight=2;hachureGap=8;fillColor=#dae8fc;fillStyle=solid;sketch=1;strokeColor=#6c8ebf;fontFamily=Courier New;" vertex="1" parent="1">
          <mxGeometry x="830" y="445" width="120" height="60" as="geometry" />
        </mxCell>
        <mxCell id="DQcg5EJKzN0mDOpgjfEo-5" value="Citrix Workspace" style="rounded=1;whiteSpace=wrap;html=1;strokeWidth=2;fillWeight=4;hachureGap=8;hachureAngle=45;fillColor=none;sketch=1;fontFamily=Courier New;" vertex="1" parent="1">
          <mxGeometry x="385" y="409" width="120" height="40" as="geometry" />
        </mxCell>
        <mxCell id="DQcg5EJKzN0mDOpgjfEo-7" value="" style="endArrow=none;html=1;rounded=0;exitX=0;exitY=0.5;exitDx=0;exitDy=0;entryX=1;entryY=0.5;entryDx=0;entryDy=0;" edge="1" parent="1" source="DQcg5EJKzN0mDOpgjfEo-5" target="MF8WEzn8YoeKOsFNkelG-15">
          <mxGeometry width="50" height="50" relative="1" as="geometry">
            <mxPoint x="386" y="420" as="sourcePoint" />
            <mxPoint x="350" y="449" as="targetPoint" />
          </mxGeometry>
        </mxCell>
        <mxCell id="DQcg5EJKzN0mDOpgjfEo-10" value="" style="endArrow=none;html=1;rounded=0;entryX=1;entryY=0.5;entryDx=0;entryDy=0;exitX=0;exitY=0.5;exitDx=0;exitDy=0;" edge="1" parent="1" source="DQcg5EJKzN0mDOpgjfEo-1" target="MF8WEzn8YoeKOsFNkelG-13">
          <mxGeometry width="50" height="50" relative="1" as="geometry">
            <mxPoint x="395" y="770" as="sourcePoint" />
            <mxPoint x="370" y="781" as="targetPoint" />
          </mxGeometry>
        </mxCell>
        <mxCell id="DQcg5EJKzN0mDOpgjfEo-13" value="libsoxy.so" style="ellipse;whiteSpace=wrap;html=1;strokeWidth=2;fillWeight=2;hachureGap=8;fillColor=#dae8fc;fillStyle=solid;sketch=1;strokeColor=#6c8ebf;fontFamily=Courier New;" vertex="1" parent="1">
          <mxGeometry x="830" y="587" width="120" height="60" as="geometry" />
        </mxCell>
        <mxCell id="DQcg5EJKzN0mDOpgjfEo-14" value="" style="endArrow=none;html=1;rounded=0;exitX=0;exitY=0.5;exitDx=0;exitDy=0;entryX=1;entryY=0.5;entryDx=0;entryDy=0;" edge="1" parent="1" source="MF8WEzn8YoeKOsFNkelG-23">
          <mxGeometry width="50" height="50" relative="1" as="geometry">
            <mxPoint x="690" y="581" as="sourcePoint" />
            <mxPoint x="672.0000000000005" y="581.0000000000002" as="targetPoint" />
          </mxGeometry>
        </mxCell>
        <mxCell id="MF8WEzn8YoeKOsFNkelG-62" value="RDP" style="sketch=0;verticalLabelPosition=bottom;sketch=0;aspect=fixed;html=1;verticalAlign=top;strokeColor=none;fillColor=#000000;align=center;outlineConnect=0;pointerEvents=1;shape=mxgraph.citrix2.tunnel;" parent="1" vertex="1">
          <mxGeometry x="580" y="570.11" width="92" height="19.78" as="geometry" />
        </mxCell>
        <mxCell id="DQcg5EJKzN0mDOpgjfEo-16" value="" style="endArrow=none;html=1;rounded=0;exitX=1;exitY=0.5;exitDx=0;exitDy=0;" edge="1" parent="1" source="MF8WEzn8YoeKOsFNkelG-37">
          <mxGeometry width="50" height="50" relative="1" as="geometry">
            <mxPoint x="605" y="377" as="sourcePoint" />
            <mxPoint x="550" y="580" as="targetPoint" />
            <Array as="points">
              <mxPoint x="550" y="390" />
            </Array>
          </mxGeometry>
        </mxCell>
        <mxCell id="DQcg5EJKzN0mDOpgjfEo-17" value="" style="endArrow=none;html=1;rounded=0;exitX=1;exitY=0.5;exitDx=0;exitDy=0;" edge="1" parent="1" source="MF8WEzn8YoeKOsFNkelG-28">
          <mxGeometry width="50" height="50" relative="1" as="geometry">
            <mxPoint x="550" y="500" as="sourcePoint" />
            <mxPoint x="550" y="580" as="targetPoint" />
            <Array as="points">
              <mxPoint x="550" y="773" />
            </Array>
          </mxGeometry>
        </mxCell>
      </root>
    </mxGraphModel>
  </diagram>
</mxfile>
